# xmcd CD database file
#
# Track frame offsets:
#	150
#	14649
#	35343
#	52512
#	73876
#	91911
#	113193
#	132507
#	149754
#	166076
#	194513
#
# Disc length: 2606 seconds
#
# Revision: 6
# Processed by: cddbd v1.5.2PL0 Copyright (c) Steve Scherf et al.
# Submitted via: CDex 1.51
#
DISCID=9c0a2c0b
DTITLE=孫燕姿 - 風箏
DYEAR=2001
DGENRE=Pop
TTITLE0=綠光
TTITLE1=風箏
TTITLE2=任性
TTITLE3=逃亡
TTITLE4=不是真的愛我
TTITLE5=真的
TTITLE6=練習
TTITLE7=愛情字典
TTITLE8=隨堂測驗
TTITLE9=我是我
TTITLE10=DATA
EXTD=YEAR: 2001
EXTT0=
EXTT1=
EXTT2=
EXTT3=
EXTT4=
EXTT5=
EXTT6=
EXTT7=
EXTT8=
EXTT9=
EXTT10=
PLAYORDER=
